<?xml version="1.0" encoding="utf-8"?>
<!-- Generator: Adobe Illustrator 23.0.2, SVG Export Plug-In . SVG Version: 6.00 Build 0)  -->
<svg version="1.1" id="Layer_1" xmlns="http://www.w3.org/2000/svg" xmlns:xlink="http://www.w3.org/1999/xlink" x="0px" y="0px"
	 viewBox="0 0 239.6641 237.1826" enable-background="new 0 0 239.6641 237.1826" xml:space="preserve">
<g>
	<polygon points="216.8301,164.9326 216.8301,237.0654 228.8301,237.0654 228.8301,164.9326 239.6641,164.9326 239.6641,155.9326 
		83.0586,155.9326 83.0586,164.9326 	"/>
	<path d="M170.6641,76.4306v51.0039h-64.7539c-0.0498,1.9659-0.1143,3.9605-0.2022,5.9981h4.4561v10.668h-5.9385
		c-0.9785,2.1992-2.5,4.0918-4.3955,5.5161v1.1508h50.668v-6.6669h-10.334v-10.668h36.5v-63H99.0654
		c0.7227,1.8979,1.3829,3.9014,1.9903,5.998H170.6641z"/>
	<path d="M231.4766,57.2675h-46v93.5h46V57.2675z M208.4766,127.7666c-2.8985,0-5.25-2.3506-5.25-5.25
		c0-2.8994,2.3515-5.25,5.25-5.25c2.9004,0,5.25,2.3506,5.25,5.25C213.7266,125.416,211.377,127.7666,208.4766,127.7666z
		 M224.9766,93.4326h-33v-11h33V93.4326z M224.9766,76.7666h-33v-11h33V76.7666z"/>
	<path d="M6.8789,71.6904C2.7735,82.0693,0.0156,97.0761,0,119.7353c0.0029,5.8565,0.1914,12.2237,0.5977,19.1582
		c0.249,4.251,3.7754,7.5323,7.9814,7.5323c0.1563,0,0.3135-0.004,0.4717-0.0137c4.4111-0.2598,7.7773-4.043,7.5186-8.4551
		c-0.3907-6.6523-0.5684-12.709-0.5684-18.2217c-0.0332-24.2158,3.4971-37.8183,6.9658-44.9189v33.0635v18.4619
		c1.2451,0.2099,4.2002,0.687,8.1221,1.1665c5.2412,0.643,12.1826,1.2822,18.9238,1.2802
		c6.7383,0.002,13.6797-0.6372,18.9199-1.2802c3.9248-0.48,6.8828-0.9561,8.126-1.166v-18.4624V74.8603
		c0.5918,1.2168,1.1904,2.6113,1.7803,4.2393c2.8183,7.8115,5.1904,20.6279,5.1806,40.6367c0,5.5127-0.1777,11.5713-0.5644,18.2246
		c-0.2578,4.4092,3.1094,8.1943,7.5205,8.4502c0.1592,0.0098,0.3174,0.0137,0.4746,0.0137c4.2031,0,7.7295-3.2823,7.9785-7.5342
		c0.4033-6.9326,0.5908-13.2979,0.5908-19.1543c-0.041-30.1826-4.8613-46.8877-11.4345-56.9307
		c-3.2852-4.9863-7.128-8.1836-10.6797-9.955c-3.3994-1.7149-6.3867-2.1075-8.1934-2.1329
		c-0.1279-0.0058-0.2529-0.0195-0.3818-0.0195h-5.9834c-1.9512,5.4883-7.1768,9.4248-13.335,9.4248s-11.3838-3.9365-13.3349-9.4248
		h-5.9815c-0.1181,0-0.2324,0.0117-0.3496,0.0176c-1.8017,0.0215-4.8086,0.4072-8.2304,2.1338
		C16.7344,55.5166,10.9375,61.3525,6.8789,71.6904z"/>
	<path d="M77.0586,129.3833c-2.0517,0.3379-6.6123,1.0405-12.2392,1.6006c0.082,0.269,0.1855,0.5981,0.3203,0.9897l-2.8369,0.9751
		c-0.2608-0.7568-0.4307-1.3374-0.5264-1.687c-3.7266,0.3086-7.7647,0.5268-11.7637,0.5273
		c-4.001-0.0005-8.041-0.2187-11.7666-0.5273c-0.0967,0.3496-0.2666,0.9307-0.5273,1.688l-2.8369-0.9766
		c0.1347-0.3916,0.2402-0.7202,0.3222-0.9892c-5.625-0.5596-10.1855-1.2623-12.2373-1.6001v95.4355
		c0,6.8301,5.5371,12.3633,12.3633,12.3633c6.8281,0,12.3652-5.5332,12.3652-12.3633V143.54h4.6348v81.2793
		c0,6.8301,5.5371,12.3633,12.3633,12.3633c6.8281,0,12.3652-5.5332,12.3652-12.3633V129.3833z M25.4492,149.5483l-1.6045-2.5356
		c0.5323-0.336,1.042-0.6929,1.5313-1.0679l1.8223,2.3828C26.6416,148.7534,26.0586,149.1631,25.4492,149.5483z M29.6006,146.2402
		l-2.1035-2.1396c0.4551-0.4468,0.8848-0.9053,1.2949-1.3741l2.2578,1.9751C30.5928,145.2231,30.1104,145.7392,29.6006,146.2402z
		 M33.001,142.2231l-2.4482-1.7344c0.375-0.5297,0.7255-1.062,1.0537-1.5898l2.5498,1.5796
		C33.7998,141.0551,33.4141,141.6401,33.001,142.2231z M35.6865,137.7475l-2.6757-1.3554c0.3056-0.6036,0.5781-1.1861,0.8212-1.7369
		l2.7452,1.2071C36.3145,136.4594,36.0186,137.0913,35.6865,137.7475z M74.6475,145.9448c0.4892,0.3745,1,0.731,1.5303,1.0669
		l-1.6045,2.5361c-0.6104-0.3872-1.1914-0.7944-1.7491-1.2187L74.6475,145.9448z M72.5244,144.0986l-2.1015,2.1411
		c-0.5098-0.5019-0.9932-1.0161-1.4502-1.5386l2.2578-1.9746C71.6397,143.1953,72.0723,143.6543,72.5244,144.0986z
		 M69.4707,140.4892l-2.4482,1.7354c-0.4141-0.5855-0.7989-1.169-1.1563-1.7461l-0.0009,0.0005v-0.002l0.0009,0.0015l2.5508-1.5811
		C68.7432,139.4262,69.0938,139.959,69.4707,140.4892z M66.1904,134.6552c0.2422,0.5508,0.5147,1.1329,0.8223,1.7369l-2.6777,1.354
		c-0.3321-0.6553-0.627-1.2862-0.8887-1.8824L66.1904,134.6552z"/>
	<path d="M50.0117,45c4.917,0,9.4619-1.5816,13.1631-4.2569c5.6543-4.0869,9.3369-10.7329,9.3369-18.2431
		c0-12.4268-10.0722-22.5-22.5-22.5c-12.4257,0-22.5,10.0732-22.5,22.5c0,7.5097,3.6827,14.1557,9.3369,18.2426
		C40.5508,43.4184,45.0947,45,50.0117,45z"/>
</g>
</svg>
